<svg width="938.04" height="110.12" viewBox="0 0 938.04 110.12" xmlns="http://www.w3.org/2000/svg">

<g id="svgGroup" stroke-linecap="round" fill-rule="evenodd" stroke="none" stroke-width="0">

<path
					fill="#8b7b74"
					d="M 78.72 74.52 L 55.8 74.52 L 55.2 68.16 L 54.36 68.16 Q 52.44 71.4 49.92 72.9 Q 47.4 74.4 44.64 74.88 Q 41.88 75.36 38.88 75.36 Q 33.72 75.36 30.3 73.74 Q 26.88 72.12 25.2 68.58 Q 23.52 65.04 23.52 59.52 Q 23.52 53.28 24.9 49.86 Q 26.28 46.44 29.88 45.06 Q 33.48 43.68 40.08 43.68 Q 41.64 43.68 44.22 43.74 Q 46.8 43.8 49.74 43.86 Q 52.68 43.92 54.96 44.04 L 54.96 42 Q 54.96 39.12 54.54 37.5 Q 54.12 35.88 52.92 35.1 Q 51.72 34.32 49.08 34.14 Q 46.44 33.96 42.12 33.96 Q 40.92 33.96 39.18 34.02 Q 37.44 34.08 35.46 34.14 Q 33.48 34.2 31.2 34.32 Q 28.92 34.44 26.52 34.68 L 26.52 23.04 Q 31.56 22.2 36.96 21.78 Q 42.36 21.36 47.52 21.36 Q 56.04 21.36 60.9 22.62 Q 65.76 23.88 68.16 26.52 Q 70.56 29.16 71.22 33.18 Q 71.88 37.2 71.88 42.84 L 71.88 67.2 L 79.8 67.2 Q 81.96 67.2 83.28 66.78 Q 84.6 66.36 85.38 64.68 Q 86.16 63 86.46 59.1 Q 86.76 55.2 86.76 48.24 Q 86.76 37.56 86.46 30.36 Q 86.16 23.16 84.78 18.66 Q 83.4 14.16 80.28 11.82 Q 77.16 9.48 71.52 8.52 Q 67.68 7.8 61.68 7.62 Q 55.68 7.44 47.4 7.44 Q 39.96 7.44 34.38 7.56 Q 28.8 7.68 25.08 8.28 Q 18.84 9.12 15.36 11.34 Q 11.88 13.56 10.38 18 Q 8.88 22.44 8.52 29.76 Q 8.16 37.08 8.16 48.24 Q 8.16 60.72 8.64 68.52 Q 9.12 76.32 11.22 80.58 Q 13.32 84.84 18.06 86.58 Q 22.8 88.32 31.32 88.8 Q 34.32 88.92 38.46 88.98 Q 42.6 89.04 47.52 89.04 Q 50.4 89.04 54 88.98 Q 57.6 88.92 61.14 88.86 Q 64.68 88.8 67.56 88.68 Q 70.44 88.56 71.76 88.56 L 71.76 96.12 Q 69.84 96.24 67.56 96.3 Q 65.28 96.36 62.52 96.36 Q 59.76 96.36 56.1 96.42 Q 52.44 96.48 47.52 96.48 Q 33.84 96.48 25.02 95.46 Q 16.2 94.44 11.1 91.68 Q 6 88.92 3.6 83.58 Q 1.2 78.24 0.6 69.6 Q 0 60.96 0 48.24 Q 0 35.52 0.6 26.88 Q 1.2 18.24 3.6 12.9 Q 6 7.56 11.1 4.8 Q 16.2 2.04 25.02 1.02 Q 33.84 0 47.52 0 Q 61.2 0 69.96 0.96 Q 78.72 1.92 83.82 4.68 Q 88.92 7.44 91.32 12.78 Q 93.72 18.12 94.38 26.76 Q 95.04 35.4 95.04 48.24 Q 95.04 57.96 94.14 63.36 Q 93.24 68.76 91.32 71.1 Q 89.4 73.44 86.28 73.98 Q 83.16 74.52 78.72 74.52 Z M 54.96 54.96 Q 54.96 58.2 54.36 60.18 Q 53.76 62.16 52.02 62.94 Q 50.28 63.72 46.68 63.72 Q 43.44 63.72 41.82 63.24 Q 40.2 62.76 39.78 61.5 Q 39.36 60.24 39.36 57.96 Q 39.36 55.44 39.78 54.18 Q 40.2 52.92 41.46 52.5 Q 42.72 52.08 45.36 52.08 L 54.96 52.08 L 54.96 54.96 Z"
					transform="translate(0 8)"
				/>

				<g fill="#d55a3f">
					<path d="M 154.2 28.92 L 154.2 42.48 Q 151.8 42.12 148.02 41.88 Q 144.24 41.64 141 41.64 Q 136.8 41.64 134.4 42.3 Q 132 42.96 130.8 44.7 Q 129.6 46.44 129.18 49.8 Q 128.76 53.16 128.76 58.56 Q 128.76 63.96 129.18 67.38 Q 129.6 70.8 130.8 72.54 Q 132 74.28 134.52 74.88 Q 137.04 75.48 141.12 75.48 Q 144 75.48 147.66 75.24 Q 151.32 75 154.68 74.64 L 154.68 88.2 Q 150.72 89.04 145.68 89.58 Q 140.64 90.12 135.96 90.12 Q 128.28 90.12 123.36 88.74 Q 118.44 87.36 115.56 84.78 Q 112.68 82.2 111.36 78.36 Q 110.04 74.52 109.68 69.54 Q 109.32 64.56 109.32 58.56 Q 109.32 52.68 109.68 47.76 Q 110.04 42.84 111.48 38.94 Q 112.92 35.04 115.74 32.4 Q 118.56 29.76 123.42 28.38 Q 128.28 27 135.84 27 Q 140.64 27 145.5 27.48 Q 150.36 27.96 154.2 28.92 Z" />
					<path d="M 193.8 90.12 Q 185.64 90.12 180.24 89.16 Q 174.84 88.2 171.72 86.04 Q 168.6 83.88 167.16 80.28 Q 165.72 76.68 165.3 71.28 Q 164.88 65.88 164.88 58.44 Q 164.88 51 165.3 45.66 Q 165.72 40.32 167.16 36.72 Q 168.6 33.12 171.72 30.96 Q 174.84 28.8 180.24 27.9 Q 185.64 27 193.8 27 Q 202.08 27 207.48 27.9 Q 212.88 28.8 216 30.96 Q 219.12 33.12 220.56 36.72 Q 222 40.32 222.42 45.66 Q 222.84 51 222.84 58.44 Q 222.84 65.88 222.42 71.28 Q 222 76.68 220.56 80.28 Q 219.12 83.88 216 86.04 Q 212.88 88.2 207.48 89.16 Q 202.08 90.12 193.8 90.12 Z M 193.8 75.48 Q 190.2 75.48 188.22 75 Q 186.24 74.52 185.4 72.84 Q 184.56 71.16 184.38 67.68 Q 184.2 64.2 184.2 58.44 Q 184.2 52.68 184.38 49.32 Q 184.56 45.96 185.4 44.28 Q 186.24 42.6 188.22 42.12 Q 190.2 41.64 193.8 41.64 Q 197.4 41.64 199.44 42.12 Q 201.48 42.6 202.32 44.28 Q 203.16 45.96 203.34 49.32 Q 203.52 52.68 203.52 58.44 Q 203.52 64.2 203.34 67.68 Q 203.16 71.16 202.32 72.84 Q 201.48 74.52 199.44 75 Q 197.4 75.48 193.8 75.48 Z" />
					<path d="M 270.72 34.44 L 271.68 34.44 L 271.68 0 L 291 0 L 291 89.16 L 272.64 89.16 L 272.16 81.84 L 271.2 81.84 Q 269.4 85.32 266.58 87.06 Q 263.76 88.8 260.46 89.46 Q 257.16 90.12 253.68 90.12 Q 248.4 90.12 244.56 88.68 Q 240.72 87.24 238.32 83.7 Q 235.92 80.16 234.78 74.04 Q 233.64 67.92 233.64 58.68 Q 233.64 49.56 234.72 43.38 Q 235.8 37.2 238.2 33.66 Q 240.6 30.12 244.38 28.56 Q 248.16 27 253.56 27 Q 257.16 27 260.34 27.6 Q 263.52 28.2 266.16 29.76 Q 268.8 31.32 270.72 34.44 Z M 262.32 74.28 Q 259.08 74.28 257.16 73.86 Q 255.24 73.44 254.34 71.94 Q 253.44 70.44 253.2 67.26 Q 252.96 64.08 252.96 58.56 Q 252.96 53.04 253.2 49.92 Q 253.44 46.8 254.34 45.3 Q 255.24 43.8 257.16 43.32 Q 259.08 42.84 262.32 42.84 Q 266.04 42.84 267.96 43.8 Q 269.88 44.76 270.6 47.4 Q 271.32 49.32 271.5 52.08 Q 271.68 54.84 271.68 58.56 Q 271.68 62.28 271.5 65.1 Q 271.32 67.92 270.6 70.08 Q 269.76 72.48 267.9 73.38 Q 266.04 74.28 262.32 74.28 Z" />
					<path d="M 359.76 58.68 L 359.76 63.36 L 322.92 63.36 Q 322.92 67.44 323.28 69.9 Q 323.64 72.36 325.2 73.56 Q 326.76 74.76 330 75.18 Q 333.24 75.6 339 75.6 Q 341.28 75.6 344.4 75.48 Q 347.52 75.36 350.94 75.12 Q 354.36 74.88 357.36 74.64 L 357.36 88.08 Q 354.72 88.68 350.94 89.16 Q 347.16 89.64 342.84 89.88 Q 338.52 90.12 334.44 90.12 Q 325.8 90.12 320.16 89.04 Q 314.52 87.96 311.22 85.62 Q 307.92 83.28 306.3 79.56 Q 304.68 75.84 304.26 70.68 Q 303.84 65.52 303.84 58.68 Q 303.84 50.4 304.62 44.4 Q 305.4 38.4 308.16 34.56 Q 310.92 30.72 316.74 28.86 Q 322.56 27 332.52 27 Q 340.56 27 345.6 28.14 Q 350.64 29.28 353.58 31.62 Q 356.52 33.96 357.78 37.68 Q 359.04 41.4 359.4 46.62 Q 359.76 51.84 359.76 58.68 Z M 343.68 53.4 L 341.64 55.32 L 341.64 53.4 Q 341.64 49.08 341.22 46.56 Q 340.8 44.04 339.78 42.78 Q 338.76 41.52 336.96 41.16 Q 335.16 40.8 332.4 40.8 Q 329.28 40.8 327.42 41.22 Q 325.56 41.64 324.6 42.96 Q 323.64 44.28 323.28 46.8 Q 322.92 49.32 322.92 53.4 L 343.68 53.4 Z" />
				</g>

				<g fill="#b03454">
					<path
						d="M 398.52 89.16 L 387.24 89.16 L 367.68 27.96 L 377.88 27.96 L 392.76 77.28 L 393.6 77.28 L 408.48 27.96 L 417.72 27.96 L 432.6 77.28 L 433.56 77.28 L 448.32 27.96 L 458.16 27.96 L 438.6 89.16 L 427.32 89.16 L 413.28 44.04 L 412.44 44.04 L 398.52 89.16 Z"
						transform="translate(8 0)"
					/>
					<path
						d="M 482.16 89.16 L 472.32 89.16 L 472.32 27.96 L 482.16 27.96 L 482.16 89.16 Z M 482.52 10.68 L 472.08 10.68 L 472.08 0 L 482.52 0 L 482.52 10.68 Z"
						transform="translate(8 0)"
					/>
					<path
						d="M 517.68 89.16 L 507.96 89.16 L 507.96 36.24 L 495.6 36.24 L 495.6 27.96 L 507.96 27.96 L 507.96 10.2 L 517.68 10.2 L 517.68 27.96 L 532.32 27.96 L 532.32 36.24 L 517.68 36.24 L 517.68 89.16 Z"
						transform="translate(8 0)"
					/>
					<path
						d="M 555.6 89.16 L 545.76 89.16 L 545.76 0 L 555.6 0 L 555.6 36 L 556.2 36 Q 557.4 33.48 559.68 31.44 Q 561.96 29.4 565.92 28.26 Q 569.88 27.12 576 27.12 Q 582.72 27.12 586.86 28.5 Q 591 29.88 593.22 32.76 Q 595.44 35.64 596.16 40.14 Q 596.88 44.64 596.88 50.88 L 596.88 89.16 L 587.16 89.16 L 587.16 54.24 Q 587.16 48 586.62 44.34 Q 586.08 40.68 584.52 38.82 Q 582.96 36.96 579.96 36.36 Q 576.96 35.76 572.04 35.76 Q 566.16 35.76 562.8 37.26 Q 559.44 38.76 557.88 41.58 Q 556.32 44.4 555.96 48.42 Q 555.6 52.44 555.6 57.6 L 555.6 89.16 Z"
						transform="translate(8 0)"
					/>
				</g>

				<g fill="#8a0e69">
					<path d="M 670.8 28.92 L 670.8 42.48 Q 668.4 42.12 664.62 41.88 Q 660.84 41.64 657.6 41.64 Q 653.4 41.64 651 42.3 Q 648.6 42.96 647.4 44.7 Q 646.2 46.44 645.78 49.8 Q 645.36 53.16 645.36 58.56 Q 645.36 63.96 645.78 67.38 Q 646.2 70.8 647.4 72.54 Q 648.6 74.28 651.12 74.88 Q 653.64 75.48 657.72 75.48 Q 660.6 75.48 664.26 75.24 Q 667.92 75 671.28 74.64 L 671.28 88.2 Q 667.32 89.04 662.28 89.58 Q 657.24 90.12 652.56 90.12 Q 644.88 90.12 639.96 88.74 Q 635.04 87.36 632.16 84.78 Q 629.28 82.2 627.96 78.36 Q 626.64 74.52 626.28 69.54 Q 625.92 64.56 625.92 58.56 Q 625.92 52.68 626.28 47.76 Q 626.64 42.84 628.08 38.94 Q 629.52 35.04 632.34 32.4 Q 635.16 29.76 640.02 28.38 Q 644.88 27 652.44 27 Q 657.24 27 662.1 27.48 Q 666.96 27.96 670.8 28.92 Z" />
					<path d="M 717.24 53.4 L 717.24 51.12 Q 717.24 47.64 716.7 45.72 Q 716.16 43.8 714.66 42.9 Q 713.16 42 710.16 41.82 Q 707.16 41.64 702.24 41.64 Q 699.48 41.64 696.18 41.76 Q 692.88 41.88 689.7 42.06 Q 686.52 42.24 684.36 42.48 L 684.36 28.92 Q 689.28 28.08 695.46 27.54 Q 701.64 27 708.48 27 Q 716.16 27 721.26 27.96 Q 726.36 28.92 729.48 30.9 Q 732.6 32.88 734.1 35.88 Q 735.6 38.88 736.08 42.96 Q 736.56 47.04 736.56 52.2 L 736.56 89.16 L 718.08 89.16 L 717.6 81.96 L 716.64 81.96 Q 714.36 85.56 711.36 87.36 Q 708.36 89.16 705 89.64 Q 701.64 90.12 698.4 90.12 Q 692.64 90.12 688.68 88.32 Q 684.72 86.52 682.74 82.44 Q 680.76 78.36 680.76 71.76 Q 680.76 64.8 682.38 60.66 Q 684 56.52 688.2 54.72 Q 692.4 52.92 700.08 52.92 Q 701.16 52.92 703.14 52.98 Q 705.12 53.04 707.64 53.1 L 712.68 53.22 Q 715.2 53.28 717.24 53.4 Z M 717.24 65.28 Q 717.24 67.92 716.88 69.84 Q 716.52 71.76 715.92 73.08 Q 715.2 74.28 714.06 75.06 Q 712.92 75.84 711.3 76.14 Q 709.68 76.44 707.52 76.44 Q 703.8 76.44 701.94 75.96 Q 700.08 75.48 699.48 74.04 Q 698.88 72.6 698.88 69.96 Q 698.88 66.84 699.42 65.34 Q 699.96 63.84 701.52 63.42 Q 703.08 63 706.08 63 L 717.24 63 L 717.24 65.28 Z" />
					<path d="M 770.64 89.16 L 751.44 89.16 L 751.44 27.96 L 769.68 27.96 L 770.16 38.4 L 771.24 38.4 Q 772.92 33.96 775.5 31.44 Q 778.08 28.92 781.8 27.96 Q 785.52 27 790.44 27 L 790.44 44.64 Q 782.88 44.64 778.56 46.56 Q 774.24 48.48 772.44 53.1 Q 770.64 57.72 770.64 66 L 770.64 89.16 Z" />
					<path d="M 819.84 89.16 L 800.64 89.16 L 800.64 27.96 L 818.88 27.96 L 819.36 38.4 L 820.44 38.4 Q 822.12 33.96 824.7 31.44 Q 827.28 28.92 831 27.96 Q 834.72 27 839.64 27 L 839.64 44.64 Q 832.08 44.64 827.76 46.56 Q 823.44 48.48 821.64 53.1 Q 819.84 57.72 819.84 66 L 819.84 89.16 Z" />
					<path d="M 869.28 89.16 L 849.84 89.16 L 849.84 27.96 L 869.28 27.96 L 869.28 89.16 Z M 869.4 15.48 L 849.6 15.48 L 849.6 0 L 869.4 0 L 869.4 15.48 Z" />
					<path d="M 938.04 58.68 L 938.04 63.36 L 901.2 63.36 Q 901.2 67.44 901.56 69.9 Q 901.92 72.36 903.48 73.56 Q 905.04 74.76 908.28 75.18 Q 911.52 75.6 917.28 75.6 Q 919.56 75.6 922.68 75.48 Q 925.8 75.36 929.22 75.12 Q 932.64 74.88 935.64 74.64 L 935.64 88.08 Q 933 88.68 929.22 89.16 Q 925.44 89.64 921.12 89.88 Q 916.8 90.12 912.72 90.12 Q 904.08 90.12 898.44 89.04 Q 892.8 87.96 889.5 85.62 Q 886.2 83.28 884.58 79.56 Q 882.96 75.84 882.54 70.68 Q 882.12 65.52 882.12 58.68 Q 882.12 50.4 882.9 44.4 Q 883.68 38.4 886.44 34.56 Q 889.2 30.72 895.02 28.86 Q 900.84 27 910.8 27 Q 918.84 27 923.88 28.14 Q 928.92 29.28 931.86 31.62 Q 934.8 33.96 936.06 37.68 Q 937.32 41.4 937.68 46.62 Q 938.04 51.84 938.04 58.68 Z M 921.96 53.4 L 919.92 55.32 L 919.92 53.4 Q 919.92 49.08 919.5 46.56 Q 919.08 44.04 918.06 42.78 Q 917.04 41.52 915.24 41.16 Q 913.44 40.8 910.68 40.8 Q 907.56 40.8 905.7 41.22 Q 903.84 41.64 902.88 42.96 Q 901.92 44.28 901.56 46.8 Q 901.2 49.32 901.2 53.4 L 921.96 53.4 Z" />
				</g>

</g>
</svg>